<svg width="25" height="24" viewBox="0 0 25 24" fill="none" xmlns="http://www.w3.org/2000/svg">
<g opacity="0.89">
<path d="M5.12327 6.90853C5.04375 6.362 5.42233 5.85449 5.96886 5.77497L13.8855 4.62307C14.432 4.54355 14.9395 4.92214 15.0191 5.46867L15.2 6.71214H17.2211L16.8542 4.19111C16.6952 3.09805 15.6802 2.34088 14.5871 2.49993L4.69131 3.93979C3.59825 4.09884 2.84108 5.11387 3.00012 6.20693L4.43999 16.1027C4.58495 17.099 5.44103 17.8162 6.41915 17.815V15.8871C6.41915 15.8389 6.41567 15.7908 6.40873 15.7431L5.12327 6.90853Z" fill="#737373"/>
<path d="M12.7211 17.6159V11.3841C12.7211 11.2223 12.9032 11.1275 13.0357 11.2203L17.487 14.3362C17.6007 14.4158 17.6007 14.5842 17.487 14.6638L13.0357 17.7797C12.9032 17.8725 12.7211 17.7777 12.7211 17.6159Z" fill="#737373"/>
<path fill-rule="evenodd" clip-rule="evenodd" d="M19.7211 7.5H9.72105C8.61648 7.5 7.72105 8.39543 7.72105 9.5V19.5C7.72105 20.6046 8.61648 21.5 9.72105 21.5H19.7211C20.8256 21.5 21.7211 20.6046 21.7211 19.5V9.5C21.7211 8.39543 20.8256 7.5 19.7211 7.5ZM18.7211 9.5L10.7211 9.5C10.1688 9.5 9.72105 9.94772 9.72105 10.5V18.5C9.72105 19.0523 10.1688 19.5 10.7211 19.5H18.7211C19.2733 19.5 19.7211 19.0523 19.7211 18.5V10.5C19.7211 9.94771 19.2733 9.5 18.7211 9.5Z" fill="#737373"/>
</g>
</svg>
