<svg width="35" height="23" viewBox="0 0 35 23" fill="none" xmlns="http://www.w3.org/2000/svg">
<path d="M10.4475 17.037L5.25 22.1481C4.6725 22.6593 3.9025 23 3.0625 23C2.25027 23 1.47132 22.6859 0.896986 22.1267C0.322655 21.5676 0 20.8093 0 20.0185V19.5926L1.75 7.01926C2.1175 3.0837 5.495 0 9.625 0H25.375C29.505 0 32.8825 3.0837 33.25 7.01926L35 19.5926V20.0185C35 20.8093 34.6773 21.5676 34.103 22.1267C33.5287 22.6859 32.7497 23 31.9375 23C31.0975 23 30.3275 22.6593 29.75 22.1481L24.5525 17.037H10.4475ZM8.75 3.40741V6.81482H5.25V8.51852H8.75V11.9259H10.5V8.51852H14V6.81482H10.5V3.40741H8.75ZM25.375 3.40741C25.0269 3.40741 24.6931 3.54203 24.4469 3.78166C24.2008 4.02129 24.0625 4.3463 24.0625 4.68519C24.0625 5.02407 24.2008 5.34908 24.4469 5.58871C24.6931 5.82834 25.0269 5.96296 25.375 5.96296C25.7231 5.96296 26.0569 5.82834 26.3031 5.58871C26.5492 5.34908 26.6875 5.02407 26.6875 4.68519C26.6875 4.3463 26.5492 4.02129 26.3031 3.78166C26.0569 3.54203 25.7231 3.40741 25.375 3.40741ZM22.3125 6.38889C21.9644 6.38889 21.6306 6.52351 21.3844 6.76314C21.1383 7.00277 21 7.32778 21 7.66667C21 8.00555 21.1383 8.33056 21.3844 8.57019C21.6306 8.80982 21.9644 8.94444 22.3125 8.94444C22.6606 8.94444 22.9944 8.80982 23.2406 8.57019C23.4867 8.33056 23.625 8.00555 23.625 7.66667C23.625 7.32778 23.4867 7.00277 23.2406 6.76314C22.9944 6.52351 22.6606 6.38889 22.3125 6.38889M28.4375 6.38889C28.0894 6.38889 27.7556 6.52351 27.5094 6.76314C27.2633 7.00277 27.125 7.32778 27.125 7.66667C27.125 8.00555 27.2633 8.33056 27.5094 8.57019C27.7556 8.80982 28.0894 8.94444 28.4375 8.94444C28.7856 8.94444 29.1194 8.80982 29.3656 8.57019C29.6117 8.33056 29.75 8.00555 29.75 7.66667C29.75 7.32778 29.6117 7.00277 29.3656 6.76314C29.1194 6.52351 28.7856 6.38889 28.4375 6.38889ZM25.375 9.37037C25.0269 9.37037 24.6931 9.50499 24.4469 9.74462C24.2008 9.98425 24.0625 10.3093 24.0625 10.6481C24.0625 10.987 24.2008 11.312 24.4469 11.5517C24.6931 11.7913 25.0269 11.9259 25.375 11.9259C25.7231 11.9259 26.0569 11.7913 26.3031 11.5517C26.5492 11.312 26.6875 10.987 26.6875 10.6481C26.6875 10.3093 26.5492 9.98425 26.3031 9.74462C26.0569 9.50499 25.7231 9.37037 25.375 9.37037Z" fill="#CBCBCB"/>
</svg>
