<svg width="20" height="20" viewBox="0 0 20 20" fill="none" xmlns="http://www.w3.org/2000/svg">
<path fill-rule="evenodd" clip-rule="evenodd" d="M9 16C12.866 16 16 12.866 16 9C16 5.13401 12.866 2 9 2C5.13401 2 2 5.13401 2 9C2 12.866 5.13401 16 9 16ZM9 18C11.1138 18 13.0574 17.2713 14.5932 16.0514C15.164 15.598 15.6785 15.0768 16.1245 14.5C17.3003 12.9791 18 11.0712 18 9C18 4.02944 13.9706 0 9 0C4.02944 0 0 4.02944 0 9C0 13.9706 4.02944 18 9 18Z" fill="white"/>
<path d="M19.826 18.674C19.9225 18.5775 19.9238 18.4213 19.8288 18.3233L16.1245 14.5C15.6785 15.0768 15.164 15.598 14.5932 16.0514L18.3232 19.8213C18.4207 19.9199 18.5797 19.9203 18.6777 19.8223L19.826 18.674Z" fill="white"/>
</svg>
