<svg width="21" height="22" viewBox="0 0 21 22" fill="none" xmlns="http://www.w3.org/2000/svg">
<path fill-rule="evenodd" clip-rule="evenodd" d="M10.5 19.5C15.4706 19.5 19 15.9706 19 11C19 6.02944 15.4706 2.5 10.5 2.5C5.52944 2.5 2 6.02944 2 11C2 15.9706 5.52944 19.5 10.5 19.5ZM10.5 21.5C16.5751 21.5 21 17.0751 21 11C21 4.92487 16.5751 0.5 10.5 0.5C4.42487 0.5 0 4.92487 0 11C0 17.0751 4.42487 21.5 10.5 21.5Z" fill="#CBCBCB"/>
<path d="M3.77551 10H5.77551L5.82675 9.83594C5.93458 9.49074 6.1224 9.14049 6.47045 9.04226C6.56648 9.01516 6.66855 9 6.77551 9C6.88247 9 6.98453 9.01516 7.08056 9.04226C7.42861 9.14049 7.61644 9.49074 7.72426 9.83594L7.77551 10H9.77551C9.77551 9.63628 9.64102 8.80534 9.5 8.55855C9.34908 8.29444 9.14125 8.03953 8.89152 7.81656C8.39187 7.37044 7.66278 7 6.77551 7C5.88823 7 5.15915 7.37044 4.65949 7.81656C4.40976 8.03953 4.20193 8.29444 4.05101 8.55855C3.90999 8.80534 3.77551 9.63628 3.77551 10Z" fill="#CBCBCB"/>
<path d="M11.5 10H13.5L13.5512 9.83594C13.6591 9.49074 13.8469 9.14049 14.1949 9.04226C14.291 9.01516 14.393 9 14.5 9C14.607 9 14.709 9.01516 14.805 9.04226C15.1531 9.14049 15.3409 9.49074 15.4487 9.83594L15.5 10H17.5C17.5 9.63628 17.3655 8.80534 17.2245 8.55855C17.0736 8.29444 16.8657 8.03953 16.616 7.81656C16.1164 7.37044 15.3873 7 14.5 7C13.6127 7 12.8836 7.37044 12.384 7.81656C12.1342 8.03953 11.9264 8.29444 11.7755 8.55855C11.6345 8.80534 11.5 9.63628 11.5 10Z" fill="#CBCBCB"/>
<path fill-rule="evenodd" clip-rule="evenodd" d="M9.21772 16.5308C7.14439 16.1191 5.54938 14.7325 4.7 13.6L6.3 12.4C6.95062 13.2675 8.15561 14.2809 9.60728 14.5692C10.9704 14.8398 12.757 14.5125 14.7628 12.3243L16.2372 13.6757C13.843 16.2875 11.3796 16.9602 9.21772 16.5308Z" fill="#CBCBCB"/>
</svg>
