<svg width="4" height="16" viewBox="0 0 4 16" fill="none" xmlns="http://www.w3.org/2000/svg">
<path d="M4 2.5C4 3.60457 3.10457 4.5 2 4.5C0.89543 4.5 0 3.60457 0 2.5C0 1.39543 0.89543 0.5 2 0.5C3.10457 0.5 4 1.39543 4 2.5Z" fill="#B2B2B2"/>
<path d="M4 7.99903C4 9.1036 3.10457 9.99903 2 9.99903C0.89543 9.99903 -5.21541e-08 9.1036 -5.21541e-08 7.99903C-5.21541e-08 6.89446 0.89543 5.99903 2 5.99903C3.10457 5.99903 4 6.89446 4 7.99903Z" fill="#B2B2B2"/>
<path d="M4 13.5C4 14.6046 3.10457 15.5 2 15.5C0.89543 15.5 0 14.6046 0 13.5C0 12.3954 0.89543 11.5 2 11.5C3.10457 11.5 4 12.3954 4 13.5Z" fill="#B2B2B2"/>
</svg>
