<svg width="18" height="19" viewBox="0 0 18 19" fill="none" xmlns="http://www.w3.org/2000/svg">
<path fill-rule="evenodd" clip-rule="evenodd" d="M9 2C5.21071 2 1.5 5.68294 1.5 9.47222C1.5 13.2615 5.18294 17 8.97222 17C12.7615 17 16.5 13.2893 16.5 9.5C16.5 5.71071 12.7893 2 9 2ZM0 9.47222C0 4.517 4.017 0.5 8.97222 0.5C13.9274 0.5 17.9444 4.517 17.9444 9.47222C17.9444 14.4274 13.9274 18.4444 8.97222 18.4444C4.017 18.4444 0 14.4274 0 9.47222ZM8 5.5C8 4.91703 8.41703 4.5 9 4.5C9.58297 4.5 10 4.91703 10 5.5C10 6.08297 9.58297 6.5 9 6.5C8.41703 6.5 8 6.08297 8 5.5ZM9 8.5C9.58297 8.5 9.72876 8.91703 9.72876 9.5V13.7222C9.72876 14.3052 9.55519 14.75 8.97222 14.75C8.38926 14.75 8.25317 14.3052 8.25317 13.7222V9.5C8.25317 8.91703 8.41703 8.5 9 8.5Z" fill="#B2B2B2"/>
</svg>
