<svg width="20" height="20" viewBox="0 0 20 20" fill="none" xmlns="http://www.w3.org/2000/svg">
<path opacity="0.89" d="M16.7211 7L8.72105 7C7.89262 7 7.22105 7.67157 7.22105 8.5V16.5C7.22105 17.3284 7.89262 18 8.72105 18H16.7211C17.5495 18 18.2211 17.3284 18.2211 16.5V8.5C18.2211 7.67157 17.5495 7 16.7211 7ZM7.72105 6H17.7211C18.5495 6 19.2211 6.67157 19.2211 7.5V17.5C19.2211 18.3284 18.5495 19 17.7211 19H7.72105C6.89262 19 6.22105 18.3284 6.22105 17.5V7.5C6.22105 6.67157 6.89262 6 7.72105 6ZM11.8135 2.12828L3.89687 3.28018C3.07707 3.39946 2.5092 4.16073 2.62848 4.98053L3.91394 13.8151C3.91741 13.839 3.91915 13.863 3.91915 13.8871V15.2294C3.41139 15.0494 3.01772 14.6008 2.93478 14.0307L1.49491 4.13493C1.37563 3.31514 1.94351 2.55387 2.7633 2.43458L12.6591 0.994716C13.4789 0.875434 14.2402 1.44331 14.3594 2.26311L14.643 4.21214H13.6325L13.5139 3.39667C13.3946 2.57688 12.6333 2.009 11.8135 2.12828ZM14.8492 12.5L11.2211 15.0397V9.96033L14.8492 12.5ZM15.2003 12.7458C15.2001 12.7456 15.1999 12.7455 15.1997 12.7454L15.2003 12.7458ZM10.749 15.3701C10.7492 15.37 10.7493 15.3699 10.7495 15.3698L10.749 15.3701Z" fill="#737373" stroke="#737373"/>
</svg>
