<svg width="21" height="20" viewBox="0 0 21 20" fill="none" xmlns="http://www.w3.org/2000/svg">
<path fill-rule="evenodd" clip-rule="evenodd" d="M10.5 18C14.9183 18 18.5 14.4183 18.5 10C18.5 5.58172 14.9183 2 10.5 2C6.08172 2 2.5 5.58172 2.5 10C2.5 14.4183 6.08172 18 10.5 18ZM10.5 20C16.0228 20 20.5 15.5228 20.5 10C20.5 4.47715 16.0228 0 10.5 0C4.97715 0 0.5 4.47715 0.5 10C0.5 15.5228 4.97715 20 10.5 20Z" fill="#737373"/>
<path fill-rule="evenodd" clip-rule="evenodd" d="M9.5 11.7962V4H11.5V11.7962L13.6534 9.91205C13.7573 9.82113 13.9152 9.83166 14.0061 9.93557L14.9939 11.0644C15.0848 11.1683 15.0743 11.3263 14.9704 11.4172L10.5 15.3288L6.02964 11.4172C5.92573 11.3263 5.9152 11.1683 6.00612 11.0644L6.99388 9.93557C7.0848 9.83166 7.24274 9.82113 7.34665 9.91205L9.5 11.7962Z" fill="#737373"/>
</svg>
