<svg width="21" height="20" viewBox="0 0 21 20" fill="none" xmlns="http://www.w3.org/2000/svg">
<path fill-rule="evenodd" clip-rule="evenodd" d="M9.5 16C13.366 16 16.5 12.866 16.5 9C16.5 5.13401 13.366 2 9.5 2C5.63401 2 2.5 5.13401 2.5 9C2.5 12.866 5.63401 16 9.5 16ZM9.5 18C11.6138 18 13.5574 17.2713 15.0932 16.0514C15.664 15.598 16.1785 15.0768 16.6245 14.5C17.8003 12.9791 18.5 11.0712 18.5 9C18.5 4.02944 14.4706 0 9.5 0C4.52944 0 0.5 4.02944 0.5 9C0.5 13.9706 4.52944 18 9.5 18Z" fill="#737373"/>
<path d="M20.326 18.674C20.4225 18.5775 20.4238 18.4213 20.3288 18.3233L16.6245 14.5C16.1785 15.0768 15.664 15.598 15.0932 16.0514L18.8232 19.8213C18.9207 19.9199 19.0797 19.9203 19.1777 19.8223L20.326 18.674Z" fill="#737373"/>
</svg>
