<svg width="20" height="20" viewBox="0 0 20 20" fill="none" xmlns="http://www.w3.org/2000/svg">
<g opacity="0.89">
<mask id="path-1-inside-1_513_3834" fill="white">
<path d="M3.12327 4.90853C3.04375 4.362 3.42233 3.85449 3.96886 3.77497L11.8855 2.62307C12.432 2.54355 12.9395 2.92214 13.0191 3.46867L13.2 4.71214H15.2211L14.8542 2.19111C14.6952 1.09805 13.6802 0.340883 12.5871 0.499927L2.69131 1.93979C1.59825 2.09884 0.841079 3.11387 1.00012 4.20693L2.43999 14.1027C2.58495 15.099 3.44103 15.8162 4.41915 15.815V13.8871C4.41915 13.8389 4.41567 13.7908 4.40873 13.7431L3.12327 4.90853Z"/>
<path d="M10.7211 15.6159V9.38413C10.7211 9.22233 10.9032 9.12749 11.0357 9.22028L15.487 12.3362C15.6007 12.4158 15.6007 12.5842 15.487 12.6638L11.0357 15.7797C10.9032 15.8725 10.7211 15.7777 10.7211 15.6159Z"/>
<path fill-rule="evenodd" clip-rule="evenodd" d="M17.7211 5.5H7.72105C6.61648 5.5 5.72105 6.39543 5.72105 7.5V17.5C5.72105 18.6046 6.61648 19.5 7.72105 19.5H17.7211C18.8256 19.5 19.7211 18.6046 19.7211 17.5V7.5C19.7211 6.39543 18.8256 5.5 17.7211 5.5ZM16.7211 7.5L8.72105 7.5C8.16877 7.5 7.72105 7.94772 7.72105 8.5V16.5C7.72105 17.0523 8.16877 17.5 8.72105 17.5H16.7211C17.2733 17.5 17.7211 17.0523 17.7211 16.5V8.5C17.7211 7.94771 17.2733 7.5 16.7211 7.5Z"/>
</mask>
<path d="M3.12327 4.90853C3.04375 4.362 3.42233 3.85449 3.96886 3.77497L11.8855 2.62307C12.432 2.54355 12.9395 2.92214 13.0191 3.46867L13.2 4.71214H15.2211L14.8542 2.19111C14.6952 1.09805 13.6802 0.340883 12.5871 0.499927L2.69131 1.93979C1.59825 2.09884 0.841079 3.11387 1.00012 4.20693L2.43999 14.1027C2.58495 15.099 3.44103 15.8162 4.41915 15.815V13.8871C4.41915 13.8389 4.41567 13.7908 4.40873 13.7431L3.12327 4.90853Z" fill="#737373"/>
<path d="M10.7211 15.6159V9.38413C10.7211 9.22233 10.9032 9.12749 11.0357 9.22028L15.487 12.3362C15.6007 12.4158 15.6007 12.5842 15.487 12.6638L11.0357 15.7797C10.9032 15.8725 10.7211 15.7777 10.7211 15.6159Z" fill="#737373"/>
<path fill-rule="evenodd" clip-rule="evenodd" d="M17.7211 5.5H7.72105C6.61648 5.5 5.72105 6.39543 5.72105 7.5V17.5C5.72105 18.6046 6.61648 19.5 7.72105 19.5H17.7211C18.8256 19.5 19.7211 18.6046 19.7211 17.5V7.5C19.7211 6.39543 18.8256 5.5 17.7211 5.5ZM16.7211 7.5L8.72105 7.5C8.16877 7.5 7.72105 7.94772 7.72105 8.5V16.5C7.72105 17.0523 8.16877 17.5 8.72105 17.5H16.7211C17.2733 17.5 17.7211 17.0523 17.7211 16.5V8.5C17.7211 7.94771 17.2733 7.5 16.7211 7.5Z" fill="#737373"/>
<path d="M16.7211 7.5V6.5V7.5ZM8.72105 7.5V8.5V8.5V7.5ZM12.5871 0.499927L12.7311 1.48951L12.5871 0.499927ZM2.69131 1.93979L2.54732 0.950214L2.69131 1.93979ZM14.8542 2.19111L15.8438 2.04713V2.04713L14.8542 2.19111ZM2.43999 14.1027L3.42957 13.9587L2.43999 14.1027ZM1.00012 4.20693L0.0105425 4.35091L1.00012 4.20693ZM4.41915 15.815L4.4204 16.815L5.41915 16.8138V15.815H4.41915ZM13.2 4.71214L12.2104 4.85613L12.335 5.71214H13.2V4.71214ZM15.2211 4.71214V5.71214H16.3771L16.2106 4.56816L15.2211 4.71214ZM4.40873 13.7431L3.41915 13.8871L4.40873 13.7431ZM4.41915 13.8871H5.41915H5.41915H4.41915ZM11.8855 2.62307L12.0295 3.61265L11.8855 2.62307ZM13.0191 3.46867L14.0086 3.32468V3.32468L13.0191 3.46867ZM3.96886 3.77497L3.82487 2.78539L3.96886 3.77497ZM3.12327 4.90853L4.11285 4.76455L3.12327 4.90853ZM11.0357 15.7797L10.4623 14.9605L10.4623 14.9605L11.0357 15.7797ZM15.487 12.6638L16.0604 13.4831L15.487 12.6638ZM15.487 12.3362L14.9135 13.1554L14.9135 13.1554L15.487 12.3362ZM11.0357 9.22028L11.6092 8.40105L11.0357 9.22028ZM8.72105 8.5H16.7211V6.5L8.72105 6.5V8.5ZM8.72105 16.5V8.5H6.72105V16.5H8.72105ZM16.7211 16.5H8.72105V18.5H16.7211V16.5ZM16.7211 8.5V16.5H18.7211V8.5H16.7211ZM17.7211 4.5H7.72105V6.5H17.7211V4.5ZM20.7211 7.5C20.7211 5.84314 19.3779 4.5 17.7211 4.5V6.5C18.2733 6.5 18.7211 6.94771 18.7211 7.5H20.7211ZM20.7211 17.5V7.5H18.7211V17.5H20.7211ZM17.7211 20.5C19.3779 20.5 20.7211 19.1569 20.7211 17.5H18.7211C18.7211 18.0523 18.2733 18.5 17.7211 18.5V20.5ZM7.72105 20.5H17.7211V18.5H7.72105V20.5ZM4.72105 17.5C4.72105 19.1569 6.0642 20.5 7.72105 20.5V18.5C7.16877 18.5 6.72105 18.0523 6.72105 17.5H4.72105ZM4.72105 7.5V17.5H6.72105V7.5H4.72105ZM7.72105 4.5C6.0642 4.5 4.72105 5.84315 4.72105 7.5H6.72105C6.72105 6.94771 7.16877 6.5 7.72105 6.5V4.5ZM16.7211 18.5C17.8256 18.5 18.7211 17.6046 18.7211 16.5H16.7211L16.7211 16.5V18.5ZM6.72105 16.5C6.72105 17.6046 7.61648 18.5 8.72105 18.5V16.5H8.72105H6.72105ZM16.7211 8.5H18.7211C18.7211 7.39543 17.8256 6.5 16.7211 6.5V8.5ZM8.72105 6.5C7.61648 6.5 6.72105 7.39543 6.72105 8.5H8.72105V6.5ZM4.11285 4.76455L12.0295 3.61265L11.7415 1.63349L3.82487 2.78539L4.11285 4.76455ZM5.39831 13.5991L4.11285 4.76455L2.13369 5.05252L3.41915 13.8871L5.39831 13.5991ZM12.4431 -0.489653L2.54732 0.950214L2.83529 2.92937L12.7311 1.48951L12.4431 -0.489653ZM15.8438 2.04713C15.6053 0.407536 14.0827 -0.728218 12.4431 -0.489653L12.7311 1.48951C13.2776 1.40998 13.7851 1.78857 13.8647 2.3351L15.8438 2.04713ZM0.0105425 4.35091L1.45041 14.2467L3.42957 13.9587L1.9897 4.06294L0.0105425 4.35091ZM2.54732 0.950214C0.907732 1.18878 -0.228022 2.71132 0.0105425 4.35091L1.9897 4.06294C1.91018 3.51641 2.28877 3.00889 2.83529 2.92937L2.54732 0.950214ZM1.45041 14.2467C1.66798 15.742 2.95228 16.8168 4.4204 16.815L4.4179 14.815C3.92977 14.8156 3.50192 14.456 3.42957 13.9587L1.45041 14.2467ZM3.41915 13.8871V15.815H5.41915V13.8871H3.41915ZM12.0295 3.61265L12.2104 4.85613L14.1896 4.56816L14.0086 3.32468L12.0295 3.61265ZM16.2106 4.56816L15.8438 2.04713L13.8647 2.3351L14.2315 4.85613L16.2106 4.56816ZM13.2 5.71214H15.2211V3.71214H13.2V5.71214ZM3.41915 13.8871H3.41915H5.41915C5.41915 13.7907 5.41218 13.6945 5.39831 13.5991L3.41915 13.8871ZM12.0295 3.61265L12.0295 3.61265L14.0086 3.32468C13.8496 2.23162 12.8346 1.47445 11.7415 1.63349L12.0295 3.61265ZM3.82487 2.78539C2.73181 2.94443 1.97464 3.95946 2.13369 5.05252L4.11285 4.76455L3.82487 2.78539ZM9.72105 9.38413V15.6159H11.7211V9.38413H9.72105ZM11.6092 16.5989L16.0604 13.4831L14.9135 11.8446L10.4623 14.9605L11.6092 16.5989ZM16.0604 11.5169L11.6092 8.40105L10.4623 10.0395L14.9135 13.1554L16.0604 11.5169ZM16.0604 13.4831C16.7429 13.0054 16.7429 11.9946 16.0604 11.5169L14.9135 13.1554C14.4586 12.8369 14.4585 12.1631 14.9135 11.8446L16.0604 13.4831ZM9.72105 15.6159C9.72105 16.5867 10.8139 17.1557 11.6092 16.5989L10.4623 14.9605C10.9925 14.5893 11.7211 14.9686 11.7211 15.6159H9.72105ZM11.7211 9.38413C11.7211 10.0313 10.9925 10.4107 10.4623 10.0395L11.6092 8.40105C10.8139 7.84432 9.72105 8.41331 9.72105 9.38413H11.7211Z" fill="#737373" mask="url(#path-1-inside-1_513_3834)"/>
</g>
</svg>
